<?xml version="1.0" encoding="UTF-8" standalone="no"?>
<svg
   xmlns:dc="http://purl.org/dc/elements/1.1/"
   xmlns:cc="http://creativecommons.org/ns#"
   xmlns:rdf="http://www.w3.org/1999/02/22-rdf-syntax-ns#"
   xmlns:svg="http://www.w3.org/2000/svg"
   xmlns="http://www.w3.org/2000/svg"
   xmlns:sodipodi="http://sodipodi.sourceforge.net/DTD/sodipodi-0.dtd"
   xmlns:inkscape="http://www.inkscape.org/namespaces/inkscape"
   inkscape:version="1.0 (4035a4f, 2020-05-01)"
   sodipodi:docname="00606-icon-service-Azure-Synapse-Analytics.svg"
   version="1.1"
   viewBox="0 0 30 30"
   height="30"
   width="30"
   id="f2f5701e-cb3b-4d6f-b407-5866ec5b7784">
  <metadata
     id="metadata53">
    <rdf:RDF>
      <cc:Work
         rdf:about="">
        <dc:format>image/svg+xml</dc:format>
        <dc:type
           rdf:resource="http://purl.org/dc/dcmitype/StillImage" />
        <dc:title></dc:title>
      </cc:Work>
    </rdf:RDF>
  </metadata>
  <sodipodi:namedview
     inkscape:current-layer="f2f5701e-cb3b-4d6f-b407-5866ec5b7784"
     inkscape:window-maximized="0"
     inkscape:window-y="25"
     inkscape:window-x="0"
     inkscape:cy="9.7249861"
     inkscape:cx="6.9365779"
     inkscape:zoom="15.584752"
     showgrid="false"
     id="namedview51"
     inkscape:window-height="811"
     inkscape:window-width="1404"
     inkscape:pageshadow="2"
     inkscape:pageopacity="0"
     guidetolerance="10"
     gridtolerance="10"
     objecttolerance="10"
     borderopacity="1"
     bordercolor="#666666"
     pagecolor="#ffffff" />
  <defs
     id="defs40">
    <linearGradient
       gradientUnits="userSpaceOnUse"
       x2="9"
       y1="5.3800001"
       x1="9"
       id="a891901b-79ae-490a-8568-9c4334417d35">
      <stop
         id="stop10"
         stop-color="#005ba1"
         offset="0.199" />
      <stop
         id="stop12"
         stop-color="#0078d4"
         offset="1" />
    </linearGradient>
    <linearGradient
       gradientUnits="userSpaceOnUse"
       y2="5.2870002"
       x2="9"
       y1="12.713"
       x1="9"
       id="bbdaa009-2281-4da8-9e89-6f41689e91a7">
      <stop
         id="stop15"
         stop-color="#198ab3"
         offset="0" />
      <stop
         id="stop17"
         stop-color="#32bedd"
         offset="0.172" />
      <stop
         id="stop19"
         stop-color="#50e6ff"
         offset="0.5" />
      <stop
         id="stop21"
         stop-color="#4fe4fd"
         offset="0.5" />
      <stop
         id="stop23"
         stop-color="#4bddf8"
         offset="0.5" />
      <stop
         id="stop25"
         stop-color="#44d2ee"
         offset="0.5" />
      <stop
         id="stop27"
         stop-color="#3ac1e0"
         offset="0.5" />
      <stop
         id="stop29"
         stop-color="#2dabce"
         offset="0.5" />
      <stop
         id="stop31"
         stop-color="#1d90b8"
         offset="0.5" />
      <stop
         id="stop33"
         stop-color="#198ab3"
         offset="0.5" />
      <stop
         id="stop35"
         stop-color="#32bedd"
         offset="0.662" />
      <stop
         id="stop37"
         stop-color="#50e6ff"
         offset="0.975" />
    </linearGradient>
  </defs>
  <g
     transform="scale(1.6666667)"
     id="g59">
    <path
       d="M 9,0 1.15,4.49 v 8.97 L 9,18 16.85,13.51 v -9 z M 15.4,12.57 9,16.27 2.6,12.609 V 5.38 L 9,1.68 15.4,5.39 Z"
       fill="#0078d4"
       id="path42" />
    <polygon
       style="fill:url(#a891901b-79ae-490a-8568-9c4334417d35)"
       points="9,1.68 15.4,5.38 16.85,4.49 9,0 1.15,4.49 2.6,5.38 9,1.68 "
       fill="url(#a891901b-79ae-490a-8568-9c4334417d35)"
       id="polygon44" />
    <path
       d="M 12.74,10.475 A 0.73,0.73 0 0 0 12.417,10.189 5.835,5.835 0 0 0 7.939,6.843 L 14.416,3.1 12.91,2.236 5.534,6.5 A 0.75,0.75 0 0 0 5.91,7.9 0.684,0.684 0 0 0 6,7.877 L 6.125,8.4 a 4.319,4.319 0 0 1 4.837,2.238 l -7.349,4.247 1.5,0.866 7.353,-4.251 a 0.729,0.729 0 0 0 0.242,-0.236 l 0.075,-0.018 C 12.776,11.217 12.765,11.191 12.758,11.162 A 0.735,0.735 0 0 0 12.74,10.475 Z"
       fill="#50e6ff"
       id="path46" />
    <path
       style="fill:url(#bbdaa009-2281-4da8-9e89-6f41689e91a7)"
       d="m 12.091,9.013 a 1.85,1.85 0 1 0 1.85,1.85 1.85,1.85 0 0 0 -1.85,-1.85 z M 5.909,5.267 a 1.85,1.85 0 1 0 1.85,1.85 1.85,1.85 0 0 0 -1.85,-1.85 z"
       fill="url(#bbdaa009-2281-4da8-9e89-6f41689e91a7)"
       id="path48" />
  </g>
</svg>
