<?xml version="1.0" encoding="utf-8"?>
<!-- Generator: Adobe Illustrator 19.2.1, SVG Export Plug-In . SVG Version: 6.00 Build 0)  -->
<svg version="1.1" id="layer" xmlns="http://www.w3.org/2000/svg" xmlns:xlink="http://www.w3.org/1999/xlink" x="0px" y="0px"
	 viewBox="0 0 652 652" style="enable-background:new 0 0 652 652;" xml:space="preserve">
<style type="text/css">
	.st0{fill:#FF3621;}
</style>
<path class="st0" d="M398.9,235.9l-78.5,44.5L237,233l-3.9,2.1v34.4l87.4,49.8l78.5-44.5v18.3l-78.5,44.5L237,290.2l-3.9,2.1v5.8
	l87.4,49.8l87.7-49.8v-34.4l-3.9-2.1L320.4,309l-78.2-44.5v-18l78.2,44.2l87.7-49.8v-33.9l-4.5-2.4l-83.2,47.1l-74-42.1l74-41.8
	l61.1,34.4l5.5-2.9v-4.2l-66.6-37.6L233,207.1v5.3l87.4,49.8l78.5-44.5V235.9z"/>
</svg>
