<?xml version="1.0" encoding="UTF-8" standalone="no"?>
<svg
   xmlns:dc="http://purl.org/dc/elements/1.1/"
   xmlns:cc="http://creativecommons.org/ns#"
   xmlns:rdf="http://www.w3.org/1999/02/22-rdf-syntax-ns#"
   xmlns:svg="http://www.w3.org/2000/svg"
   xmlns="http://www.w3.org/2000/svg"
   xmlns:sodipodi="http://sodipodi.sourceforge.net/DTD/sodipodi-0.dtd"
   xmlns:inkscape="http://www.inkscape.org/namespaces/inkscape"
   inkscape:version="1.0 (4035a4f, 2020-05-01)"
   sodipodi:docname="redshift.svg"
   id="svg30"
   preserveAspectRatio="xMidYMid"
   version="1.1"
   viewBox="0 0 30 30"
   height="30"
   width="30">
  <metadata
     id="metadata36">
    <rdf:RDF>
      <cc:Work
         rdf:about="">
        <dc:format>image/svg+xml</dc:format>
        <dc:type
           rdf:resource="http://purl.org/dc/dcmitype/StillImage" />
        <dc:title />
      </cc:Work>
    </rdf:RDF>
  </metadata>
  <defs
     id="defs34">
    <linearGradient
       id="a"
       gradientUnits="userSpaceOnUse"
       x1="-2901.9519"
       y1="923.573"
       x2="-2061.249"
       y2="1420.3311"
       gradientTransform="matrix(0.03800003,0,0,-0.03800003,-12.298179,231.21603)">
      <stop
         offset="0"
         stop-color="#909ca9"
         id="stop22" />
      <stop
         offset="1"
         stop-color="#ededee"
         id="stop24" />
    </linearGradient>
    <linearGradient
       id="b"
       gradientUnits="userSpaceOnUse"
       x1="-2882.7"
       y1="10288.81"
       x2="-2206.249"
       y2="10288.81"
       gradientTransform="matrix(0.03800003,0,0,-0.03800003,-12.298179,231.21603)">
      <stop
         offset="0"
         stop-color="#939fab"
         id="stop29" />
      <stop
         offset="1"
         stop-color="#dcdee1"
         id="stop31" />
    </linearGradient>
    <radialGradient
       id="c"
       cx="-14217.448"
       cy="7277.7051"
       r="898.12"
       gradientTransform="matrix(-0.03649111,-0.00548137,-0.01108591,0.07298223,-430.26308,-650.94138)"
       gradientUnits="userSpaceOnUse">
      <stop
         offset="0"
         stop-color="#ee352c"
         id="stop36" />
      <stop
         offset="1"
         stop-color="#a91d22"
         id="stop38" />
    </radialGradient>
  </defs>
  <sodipodi:namedview
     inkscape:current-layer="svg30"
     inkscape:window-maximized="0"
     inkscape:window-y="25"
     inkscape:window-x="61"
     inkscape:cy="9.3058536"
     inkscape:cx="16.362077"
     inkscape:zoom="7.6672857"
     showgrid="false"
     id="namedview32"
     inkscape:window-height="713"
     inkscape:window-width="1156"
     inkscape:pageshadow="2"
     inkscape:pageopacity="0"
     guidetolerance="10"
     gridtolerance="10"
     objecttolerance="10"
     borderopacity="1"
     bordercolor="#666666"
     pagecolor="#ffffff"
     inkscape:document-rotation="0" />
  <g
     transform="matrix(0.06745271,0,0,0.06745271,14.157486,13.706334)"
     id="g106">
    <path
       id="path27"
       d="m 65.439591,4.5467926 -88.34852,28.8489204 -76.861988,33.92318 -21.503273,5.67691 c -5.47644,5.20915 -11.21863,10.48511 -17.4292,15.82729 -6.81137,5.87615 -13.15528,11.219247 -18.03092,15.091617 -5.4087,4.27423 -13.42227,12.28749 -17.49541,17.36176 -6.07724,7.61263 -10.88513,15.69272 -12.95543,21.90391 -3.67313,11.21924 -1.8692,22.57121 5.20915,33.05632 9.08182,13.35514 27.17926,26.97756 48.28067,36.25985 10.75209,4.74231 28.84891,10.81862 42.47134,14.22384 22.637421,5.74342 66.444931,11.95399 90.55154076,12.88952 4.87410004,0.20016 11.41910024,0.20016 11.68547024,0 0.5349,-0.33504 4.27454,-7.4796 8.61591,-16.36064 14.82493,-30.2516 25.50929,-58.63275 31.31861,-82.87301 3.47235,-14.69068 6.20996,-34.25731 8.01234,-57.428697 0.46838,-6.47787 0.66793,-28.18099 0.26729,-35.52726 -0.60141,-12.01989 -1.66997,-21.76902 -3.33809,-31.31861 -0.26729,-1.40267 -0.33504,-2.6717 -0.20077,-2.73822 0.26636,-0.20016 1.06763,-0.46715 11.95276,-3.6066104 l -2.20271,-5.20792 v -0.002 0 z M 45.272481,16.367453 c 0.80126,0 2.93746,20.50061 3.47143,33.45665 0.13426,2.7376 0.0665,4.5406 -0.0665,4.5406 -0.53366,0 -11.28576,-6.34329 -18.96398,-11.15119 -6.67834,-4.20741 -19.36585,-12.62192 -21.3690102,-14.22445 -0.66916,-0.46715 -0.60265,-0.53366 4.8741002,-2.4041 9.28137,-3.13916 31.31954,-10.21751 32.05398,-10.21751 z M 0.26339076,31.192693 c 0.60141,0 2.13619004,0.86717 5.80932004,3.13824 13.7560702,8.61436 32.4549202,19.03235 40.4681802,22.50531 2.47031,1.06825 2.73668,0.66701 -2.93838,4.54091 -12.15385,8.28025 -27.31352,16.42686 -45.8781002,24.6409 -3.27158,1.46919 -6.00918,2.60395 -6.0757,2.60395 -0.13303,0 0.26637,-1.66842 0.80003,-3.6722 4.4744,-16.62917 7.01245996,-33.45696 7.14671996,-46.94636 0.0665,-6.67833 0.0665,-6.67833 0.66793,-6.87757 -0.13427,0.0668 -0.0678,0.0668 0,0.0668 z m -9.28198996,3.53887 c 0.3994,0.40002 0.13303,15.35922 -0.40155,19.43236 -1.2018998,9.75006 -3.0717198,18.83157 -6.1425198,29.0497 -0.73475,2.46908 -1.4036,4.5406 -1.53571,4.67364 -0.26852,0.3335 -9.41717,-8.61468 -12.42206,-12.08703 -5.20915,-6.01041 -9.28168,-12.02051 -12.28689,-17.89666 -1.53601,-3.0052 -3.9395,-8.88104 -3.73964,-9.08182 1.06825,-0.73444 36.2610798,-14.35687 36.5283698,-14.09019 z m -43.6741598,17.16191 c 0.0665,0 0.13303,0 0.20077,0.0665 0.13304,0.13365 0.60142,1.20252 1.00205,2.40411 2.13619,5.80994 6.94347,14.35748 11.08498,19.83361 4.54091,6.01041 10.48481,12.42053 15.42512,16.62763 1.60345,1.33554 3.07172,2.60396 3.27157,2.80473 0.40156,0.40094 0.5349,0.3335 -10.35054,4.4744 -12.61977,4.807897 -26.37707,9.615787 -42.13723,14.690667 a 2101.8493,2101.8493 0 0 0 -11.28391,3.67314 c -0.60203,0.20077 -0.40125,-0.13365 1.33493,-2.87095 7.81279,-12.22098 19.69904,-36.194247 26.37737,-53.156307 1.13539,-2.93838 2.27046,-5.87615 2.47124,-6.54407 0.26729,-0.93553 0.60048,-1.26903 1.46827,-1.73679 0.46745,-0.13242 0.93552,-0.26668 1.13538,-0.26668 z m -13.35452,5.54264 c 0.19986,0.13427 -3.20598,7.27883 -6.545,13.82321 -6.47786,12.621 -13.55621,25.04276 -23.038667,40.134367 -1.60253,2.60396 -3.137928,5.00868 -3.338706,5.27566 -0.333501,0.46776 -0.467764,0.3335 -1.536018,-1.73618 -2.27045,-4.47439 -4.14089,-10.21781 -5.14232,-15.493477 -1.00204,-5.20914 -0.80126,-14.29035 0.33443,-19.89951 0.86716,-4.13997 0.80126,-4.07314 2.80442,-5.07519 8.547547,-4.34044 36.194571,-17.29586 36.461861,-17.02888 z m 115.19274,4.67518 v 2.80442 c 0,14.89177 -1.60253,35.325867 -3.94073,50.218237 -0.40063,2.60396 -0.73567,4.74015 -0.80126,4.8079 0,0 -1.93634,-0.53366 -4.2068,-1.20251 -10.01642,-3.13886 -20.90155,-7.74659 -30.7184302,-13.15466 -6.47848,-3.53949 -15.8935,-9.350037 -15.6259,-9.617337 0.0656,-0.0662 2.87095,-1.5354 6.14251996,-3.27188 13.09030024,-6.81106 25.64355024,-14.1567 36.52868024,-21.43553 4.07377,-2.73822 10.21628,-7.14486 11.55337,-8.34738 z m -165.611751,19.76525 c 0.26698,0 0.20016,0.53428 -0.20047,2.93838 -0.2673,1.73679 -0.6008,4.94216 -0.73352,7.14487 -0.53551,9.750047 1.06825,16.962667 5.87614,26.845447 1.33555,2.73822 2.40472,5.00867 2.33698,5.07488 -0.46777,0.40125 -44.67436,13.35698 -58.56531,17.16283 -4.13998,1.13477 -7.74536,2.13681 -8.01388,2.20271 -0.46654,0.13426 -0.53367,0.0677 -0.33351,-1.06856 1.53571,-9.81565 9.01531,-22.63742 19.43237,-33.45604 6.94532,-7.21169 12.48827,-11.418477 21.97073,-16.828397 6.81136,-3.87237 17.29555,-9.68139 18.09682,-9.9493 6.1e-4,-0.0668 0.0671,-0.0668 0.13365,-0.0668 z m 104.175191,18.631407 c 0.0665,-0.0665 1.66905,0.80218 3.6053898,1.93695 14.29096,8.28086 34.1907802,15.96063 51.1516102,19.90013 l 1.53693,0.33442 -2.13742,1.20067 c -8.88104,4.94216 -38.0634602,17.09539 -67.91289,28.24812 -4.34136,1.60192 -8.61467,3.20537 -9.41717,3.53887 -0.80126,0.3335 -1.53601,0.53428 -1.53601,0.46776 0,-0.0677 1.20282,-2.40471 2.7376,-5.27566 8.34738,-15.6262 16.7622,-34.65793 21.03582,-47.88034 0.53551,-1.26872 0.8684,-2.40349 0.93614,-2.47092 z m -10.61783,3.47296 c 0.0677,0.0681 -0.46715,1.46919 -1.13538,3.07172 -5.80933,14.09019 -13.42319,29.45033 -23.17232,46.67876 -2.47031,4.40788 -4.54091,7.94736 -4.60866,7.94736 -0.0656,0 -2.06968,-1.20282 -4.47347,-2.6717 -14.15794,-8.6815 -26.71181,-19.36585 -34.924923,-29.7167 l -1.202513,-1.46919 6.076306,-1.66966 c 21.77026,-5.94266 40.2671,-12.3534 58.63214,-20.23302 2.60488,-1.06886 4.7423,-1.93757 4.80882,-1.93757 z m 65.97747,23.03868 c 0,0 0.0668,0.0668 0,0 0.0665,1.53601 -3.33932,15.2927 -6.14437,25.24168 -2.33697,8.34738 -4.34136,14.89238 -8.01326,26.4442 -1.60253,5.07643 -3.00397,9.2823 -3.07172,9.2823 -0.0665,0 -0.46715,-0.0665 -0.86778,-0.19924 -19.8330002,-3.60723 -37.59632,-8.61529 -54.29108,-15.2927 -4.67517,-1.87044 -11.35258,-4.87565 -11.75321,-5.20915 -0.13304,-0.13488 3.8739,-2.00347 8.94879,-4.20741 30.3843098,-13.28892 61.90371,-28.38115 72.7214,-34.85779 1.26841,-0.80157 2.27045,-1.20189 2.47123,-1.20189 z m -152.322221,5.20914 c 0.13365,0.13303 -8.34738,12.35401 -20.23455,28.98164 -4.13997,5.80994 -8.94787,12.621 -10.75056,15.15844 -1.80331,2.53775 -4.54091,6.54469 -6.07693,8.94879 l -2.80596,4.34075 -3.00521,-2.53744 c -3.53948,-2.939 -9.68231,-9.21578 -12.42022,-12.68844 -5.74342,-7.14456 -9.61579,-14.69067 -11.1518,-21.56825 -0.73475,-3.20598 -0.73475,-4.80943 -0.0677,-5.00867 1.00142,-0.26699 18.83157,-4.4744 35.52725,-8.34831 9.28229,-2.13619 20.03285,-4.67363 23.90614,-5.60854 3.87361,-0.93645 7.01307,-1.66997 7.07959,-1.66997 z m 8.54724,3.27219 2.136189,2.4038 c 9.617332,10.75148 19.433592,18.69946 31.320152,25.64293 2.13742,1.20282 3.73965,2.27046 3.60538,2.33851 -0.46622,0.3335 -41.269131,14.82309 -60.167221,21.36778 -10.61722,3.73934 -19.36585,6.74424 -19.43175,6.74424 -0.0665,0 -0.66792,-0.40002 -1.33677,-0.86778 l -1.20129,-0.8684 1.93634,-2.80412 c 6.27678,-9.08213 14.15794,-19.03173 31.31985,-39.73312 z m 53.290261,38.12998 c 0.0656,-0.0662 3.00397,1.00143 6.60967,2.33851 8.68242,3.27158 15.55937,5.34125 24.77577,7.67884 11.3525798,2.87187 27.77974,5.6766 37.46328,6.47756 1.46919,0.13303 2.27046,0.26729 2.00316,0.46776 -0.46838,0.26729 -10.28371,3.53948 -17.4960202,5.80994 -11.48685,3.60538 -46.5451098,13.95593 -75.1261198,22.17028 -5.27566,1.5357 -9.81688,2.80473 -10.08386,2.87094 -0.66701,0.13426 -2.87156,-0.46777 -2.87156,-0.73475 0,-0.13272 1.60253,-2.20271 3.53948,-4.47347 9.61549,-11.48624 19.16569,-24.3074 27.11244,-36.46125 2.20301,-3.33993 4.07376,-6.07754 4.07376,-6.14436 z m -11.75414,0.33473 c 0.0665,0.0665 -4.67425,7.67884 -12.95388,20.7673 -3.5401,5.54264 -7.48022,11.81973 -8.8829,14.02367 -1.33554,2.13681 -3.3387,5.47644 -4.47347,7.34564 l -1.93695,3.40615 -1.00143,-0.26729 c -2.404717,-0.66793 -19.299331,-6.61182 -23.773731,-8.41452 -5.54295,-2.20394 -11.28576,-4.87441 -15.55999,-7.14486 -5.34156,-2.87187 -12.01897,-7.1461 -11.48531,-7.27883 0.13334,-0.0665 9.28229,-2.53836 20.30014,-5.54264 29.249556,-7.94767 45.476241,-12.55479 56.095001,-15.8935 1.93696,-0.6011 3.606,-1.06886 3.67252,-1.00112 z m 83.13969,19.49827 h 0.0665 c 0.2673,0.66854 -10.55009,30.71874 -14.4917402,40.20089 -0.86686,2.1368 -1.19974,2.67201 -1.66812,2.60395 -1.13538,-0.0656 -16.82779,-2.26953 -26.3782998,-3.6722 -16.62702,-2.53745 -44.54103,-7.41309 -51.55225,-9.015 l -1.60253,-0.3335 9.94868,-2.272 c 21.36994,-4.8079 31.65366,-7.41185 42.07071,-10.61722 13.1558998,-4.00663 26.1784498,-9.01531 39.33311,-15.15844 2.06999,-0.93522 3.80647,-1.66966 4.27393,-1.73648 z"
       fill="url(#a)"
       style="fill:url(#a);stroke-width:0.307942" />
    <path
       id="path34"
       d="m -25.646539,-201.39889 c -1.46919,-0.19924 -25.1764,8.34831 -40.46818,14.55796 -20.63518,8.41512 -36.661091,16.429 -46.544801,23.37248 -3.6722,2.60549 -8.28086,7.21261 -9.01438,9.0153 -0.26699,0.66793 -0.40125,1.46919 -0.40125,2.27046 l 8.94879,8.48103 21.301883,6.81136 50.685388,9.08213 57.96328,9.95022 0.60141,-5.00837 c -0.19985,0 -0.33411,-0.0665 -0.53274,-0.0665 l -7.6147802,-1.20251 -1.53479,-2.7376 c -7.88023004,-13.89034 -16.56142,-31.11938 -21.6362998,-42.73895 -3.9395,-9.01531 -7.67945,-19.43175 -9.75006,-26.91135 -1.13538,-4.54091 -1.26841,-4.8079 -2.00193,-4.87442 v -0.002 h -0.003 z m -1.06979,3.40676 h 0.0687 c 0.0656,0.0659 0.33288,1.93696 0.60048,4.13936 1.13415,9.35035 3.20598,18.36411 6.47756,28.11417 2.47031,7.34595 2.47031,6.94563 -0.40063,6.07692 -6.81137,-1.8692 -37.32903,-7.14486 -59.43279,-10.21658 -3.53948,-0.46777 -6.54468,-0.93492 -6.54468,-1.00143 -0.26699,-0.26699 15.9597,-8.74863 23.10518,-12.08672 9.14865,-4.20803 34.2573,-14.69221 36.1262,-15.02572 z m -64.374322,29.91656 2.605492,0.86716 c 14.15609,4.80882 49.74832,11.6205 69.38239,13.22303 2.20302,0.20047 4.07376,0.40124 4.13935,0.40124 0.0665,0.0665 -1.80207,1.06825 -4.20679,2.20302 -9.48153,4.74138 -19.89951,10.55132 -27.11182,15.02572 -2.13619,1.33492 -4.07376,2.4041 -4.34013,2.4041 -0.2673,0 -1.66905,-0.26729 -3.13824,-0.46776 l -2.67109,-0.40125 -6.6771,-6.54469 c -11.75322,-11.41849 -20.96899,-20.23302 -24.50848,-23.57264 z m -2.670164,2.06967 9.415626,11.75353 c 5.1414,6.47756 10.35024,12.82116 11.48654,14.22291 1.13415,1.40329 2.06968,2.53898 2.00317,2.6055 -0.2673,0.20016 -13.62212,-2.40472 -20.701704,-4.00663 -7.278822,-1.66997 -10.283717,-2.47124 -14.757807,-3.87299 l -3.67313,-1.20251 v -0.93553 c 0.0665,-4.47439 5.74342,-11.15181 15.359217,-17.96256 z m 80.000526,16.02715 c 0.2676,0 0.60049,0.60079 1.40175,2.40379 2.27046,5.00806 9.3503498,18.49807 11.0849898,21.10203 0.53581996,0.86901 1.46918996,0.93552 -7.94552,-0.60049 -22.6374198,-3.67375 -29.9171698,-4.87441 -29.9171698,-5.00806 0,-0.0665 0.66793,-0.53428 1.53602,-1.00204 7.01214,-3.87237 14.09018,-8.81453 20.36789,-14.09019 1.53601,-1.26903 2.93838,-2.47093 3.20475,-2.6717 0.0665,-0.13334 0.20078,-0.19986 0.26729,-0.13334 z"
       fill="url(#b)"
       style="fill:url(#b);stroke-width:0.307942" />
    <path
       id="path41"
       d="m -121.20798,-155.38806 c 0,0 -1.46827,2.3382 -0.0662,5.81086 0.86901,2.1362 3.40614,4.74015 6.27708,7.41186 0,0 29.716401,28.98164 33.322701,33.12253 16.42686,18.964603 23.57265,37.662833 24.24057,63.439723 0.40064,16.56112 -2.73883,31.11876 -10.55132,48.0139896 C -81.875179,32.728713 -111.19156,66.185053 -156.40051,103.31422 l 6.61213,-2.20394 c 4.27362,-3.205977 10.08356,-6.610587 23.70598,-14.090187 31.452262,-17.22996 66.845261,-33.05633 110.251821,-49.35015 62.50327,-23.50674 165.277029,-51.02012 223.773969,-59.96737 l 6.07785,-0.93553 -0.93553,-1.46919 c -5.34125,-8.28086 -9.0153,-13.42226 -13.42318,-18.89808 -12.82055,-15.8935 -28.379,-28.78117 -47.41197,-39.46614 -26.17721,-14.62385 -60.035109,-26.042953 -102.905859,-34.523983 -8.08008,-1.60345 -25.8434,-4.67486 -40.2674002,-6.8785 -30.5850998,-4.74015 -50.3515798,-8.01295 -72.1209098,-11.7526 -7.81249,-1.33616 -19.49981,-3.33901 -27.246085,-5.00806 -4.006632,-0.86901 -11.685476,-2.6717 -17.695576,-4.74169 -4.80789,-1.87074 -11.75352,-3.74057 -13.22271,-9.41686 z m 17.22996,16.69538 c 0.0659,-0.0659 1.13415,0.3335 2.53744,0.80126 2.537443,0.86717 5.809326,1.86921 9.683543,2.93838 a 492.5438,492.5438 0 0 0 8.814528,2.33697 c 4.00663,1.00112 7.34503,1.93634 7.41155,1.93634 0.46837,0.46777 7.21323,22.03571 9.48368,30.31657 0.86686,3.139473 1.53602,5.809943 1.46919,5.809943 -0.0687,0.0677 -0.80219,-1.06825 -1.66997,-2.60396 -7.81341,-13.756683 -20.16742,-27.713223 -34.458381,-38.932473 -1.8689,-1.33431 -3.27158,-2.53652 -3.27158,-2.60303 z m 32.854941,9.08182 c 0.33411,0 1.8033,0.20047 3.60538,0.60079 11.35258,2.53745 31.72048,6.41074 44.7418,8.61468 2.20394,0.3335 3.94073,0.73506 3.94073,0.86778 0,0.13426 -0.80219,0.60079 -1.80423,1.13569 -2.20271,1.13476 -11.08498,6.40981 -14.02244,8.41359 -7.41309,4.94154 -14.09019,10.283713 -18.8987,15.091613 -1.93634,1.93695 -3.60662,3.53948 -3.60662,3.53948 0,0 -0.3994,-1.13476 -0.73475,-2.53805 -2.40256,-9.282293 -7.41185,-23.038983 -11.95276,-32.721293 -0.73475,-1.5354 -1.33616,-2.93807 -1.33616,-3.0711 0,0.13334 0,0.0668 0.0677,0.0668 z m 57.82994,11.01847 c 0.40063,0.13303 1.06856,2.40379 2.40379,7.41185 2.4712398,9.68354 3.6066198,20.501543 3.2059898,30.585093 -0.13426,2.80474 -0.2673,5.4087 -0.40156,5.74343 l -0.19985,0.667 -3.4723598,-1.13477 c -7.14548,-2.27045 -18.76443,-5.6769 -28.71404,-8.48102 -5.67721,-1.53602 -10.28371,-2.93838 -10.28371,-3.07172 0,-0.40125 8.28086,-8.6815 11.81973,-11.81974 6.74331,-5.944203 25.0406,-20.100903 25.64201,-19.900123 z m 4.6077298,0.667 c 0.20078,-0.19924 27.6467202,4.54091 40.1343802,6.94532 9.28291,1.80269 22.77168,4.60774 23.57264,4.94216 0.40063,0.13303 -1.00204,0.9343 -5.47644,2.93746 -17.62905,7.947363 -30.71843,15.091613 -43.7388302,23.773723 -3.40584,2.27046 -6.27770004,4.13998 -6.34422004,4.13998 -0.0665,0 -0.13334,-1.93604 -0.13334,-4.27362 0,-12.68752 -2.53774996,-25.509293 -7.21322996,-36.327293 -0.46715,-1.06856 -0.86778,-2.06998 -0.80096,-2.13773 z m 70.9855402,14.02429 c 0.20077,0.20016 -0.66793,5.609773 -1.4692,8.814533 -2.40379,9.95021 -8.88104,24.70925 -16.82686,38.59835 -1.4036,2.47093 -2.67202,4.4744 -2.80659,4.54092 -0.1321,0.0665 -1.93541,-0.93553 -4.00601,-2.13743 -7.74597,-4.54091 -16.5605,-8.81453 -26.17722,-12.82178 -2.6701602,-1.13476 -5.0080602,-2.07029 -5.0748802,-2.2027 -0.46838,-0.40125 21.0348902,-14.62509 32.3874802,-21.43645 9.01531,-5.47552 23.70598,-13.623043 23.97328,-13.355443 z m 5.07488,0.80096 c 0.60141,0 12.75526,3.339323 19.09824,5.209143 15.693649,4.67486 33.723339,11.28545 45.476549,16.62763 l 4.87411,2.20455 -3.40461,0.80065 c -28.71404,6.61059 -53.289029,14.22445 -76.995939,23.84025 -1.93664,0.80126 -3.67313,1.46919 -3.80524,1.46919 -0.13426,0 0.53367,-1.53571 1.40176,-3.40615 7.14548,-15.15844 11.75321,-30.98511 12.88736,-44.475123 0.0681,-1.26902 0.26699,-2.27014 0.46777,-2.27014 z m -121.00207,27.780353 c 0.19986,-0.20077 9.48246,2.00347 14.49082,3.40461 7.61263,2.13773 23.7725,7.54612 23.7725,7.94736 0,0.0665 -1.80238,1.60253 -3.93858,3.47297 -8.74801,7.27882 -17.16283,14.95736 -27.247,24.70741 -3.00521,2.87248 -5.54203,5.20945 -5.67506,5.20945 -0.13427,0 -0.19986,-0.40155 -0.13427,-0.93552 1.53571,-11.21925 1.20282,-25.64294 -0.93429,-40.26741 -0.20109,-1.87044 -0.40094,-3.47235 -0.33412,-3.53887 z m 195.060549,0.20078 c 0.13211,0.13273 -4.27454,7.07774 -7.07897,11.01724 -4.00601,5.74281 -9.88432,13.35698 -23.17324,30.05143 -7.0103,8.81391 -14.891449,18.76475 -17.494789,22.10345 -2.67232,3.3387096 -4.87503,6.1428296 -4.94278,6.1428296 -0.0665,0 -0.93337,-1.20128 -1.8689,-2.67017 -7.4796,-11.2192396 -16.42839,-21.0358096 -27.04623,-29.8503396 -2.00316,-1.66997 -4.20587,-3.47297 -4.94062,-4.00725 -0.73475,-0.53397 -1.33616,-1.06825 -1.33616,-1.13477 0,-0.19985 11.35136,-5.0758 19.96726,-8.54754 15.09224,-6.14405 35.657829,-13.48939 51.085099,-18.23108 8.08039,-2.53713 16.69507,-5.00806 16.82933,-4.8738 z m 5.1414,1.33462 c 0.26637,-0.0662 1.86982,0.73506 3.80647,1.86921 16.22761,9.28229 32.11987,21.23629 44.67528,33.52378 3.53887,3.47297 12.28688,12.5548 12.15262,12.62131 0,0 -3.07172,0.26699 -6.6771,0.53366 -28.11387,2.13774 -64.10673,8.08009 -98.69876,16.4271596 -2.336969,0.53367 -4.406649,1.00143 -4.540909,1.00143 -0.13211,0 2.47123,-2.6039596 5.744029,-5.7421896 20.30015,-19.56601 29.58306,-31.92003 40.53378,-53.95758 1.5354,-3.27126 2.87156,-6.076 3.00459,-6.27678 -0.0665,0 -0.0665,0 0,0 z m -148.7162192,15.2265 c 0.93553,0.19924 9.61671,4.27423 16.1607902,7.5455 6.0101,3.00397 15.02571,7.8131 15.49286,8.21311 0.0665,0.0665 -3.13947,1.73618 -7.07773,3.67314 -12.5554102,6.27708 -23.30628024,12.21975 -34.52583,19.03142 -3.20506,1.93695 -5.87615,3.54041 -5.94266,3.54041 -0.2673,0 -0.20078,-0.26853 1.60252,-3.54041 6.01041,-10.95072 10.8176998,-24.03948 13.5565298,-36.79474 0.26606,-1.00143 0.53366,-1.66843 0.73352,-1.66843 z m -8.6814998,1.60191 c 0.20078,0.20078 -2.06968,8.4139 -3.47143,12.88829 -2.73883,8.48103 -7.34626,19.09856 -11.81973,27.11213 -1.06979,1.8689 -2.67201,4.60712 -3.5401,6.14282 l -1.66905,2.6710896 -3.73964,-3.6050696 c -4.34014,-4.20741 -7.88024,-6.81168 -12.42022,-9.14957 -1.80423,-0.93399 -3.20599,-1.73618 -3.20599,-1.8689 0,-0.53428 11.41911,-10.88482 20.16712,-18.36412 6.27678,-5.4093 19.49919,-16.02683 19.69904,-15.82667 z m 53.09041,21.83708 3.2725,2.1362 c 7.47745,4.87564 16.29197,11.35258 23.03806,17.02857 3.80523,3.13792 11.15057,9.7500496 12.62099,11.3525796 l 0.80004,0.86901 -5.40777,1.5354 c -30.5851,8.48011 -54.22456,16.0262204 -81.8044502,26.1772204 -3.07172,1.13476 -5.6762998,2.06967 -5.8770698,2.06967 -0.3994,0 -0.73444,0.33351 6.1446698,-6.01071 C 12.684531,3.8132726 28.309811,-14.084617 39.929691,-31.513817 Z m -13.95716,3.47236 c 0.13304,0.13303 -9.0153,13.02101 -14.49174,20.30014 -6.5440702,8.6814996 -18.1639502,23.23883 -26.17722,32.72067 -3.33809,3.94074 -6.20903,7.21262 -6.34329,7.27975 -0.20078,0.0665 -0.26729,-0.93491 -0.26729,-2.47093 0,-8.08101 -2.06968,-16.6953704 -5.6763,-24.0404004 -1.53601,-3.07171996 -1.8033,-3.80647 -1.46826,-4.13997 1.26841,-1.13569 20.7007698,-12.2209896 32.9876498,-18.8315696 8.2805602,-4.40727 21.2344402,-10.95134 21.4364502,-10.81769 z m -84.40902,20.70139 c 0.20078,0 1.73679,0.80065 3.47328,1.7361696 4.27361,2.33698 8.08008,4.94124 11.48561,7.74659 0.13303,0.13303 -1.60253,1.53602004 -3.87298,3.20444 -6.34422,4.54092 -15.96001,11.8203504 -21.56856,16.2947504 -5.87799,4.67456 -6.07693,4.8079 -5.40992,3.80647 4.40788,-6.74485 6.61059,-10.55132 8.94879,-15.4257304 2.06968,-4.34014 4.13935,-9.48246 5.60854,-13.95685 0.53397,-1.93665 1.20221,-3.4058396 1.33524,-3.4058396 z m 22.50532,17.6290596 c 0.33288,-0.0659 0.73475,0.53427 2.53682,3.20598 3.80647,5.6750604 6.74485,13.2889204 7.48053,19.4323604 l 0.1321,1.33616 -9.14741,3.53949 c -16.36188,6.34329 -31.45288,12.62099 -41.67131,17.29463 -2.87064,1.33616 -7.87931,3.73964 -11.15089,5.34341 -3.27249,1.66842 -5.943582,2.93745 -5.943582,2.87094 0,-0.0665 2.069678,-1.60253 4.607122,-3.47297 19.96818,-14.49021 37.26312,-30.38432 50.21793,-46.2772004 1.40267,-1.66997 2.67201,-3.20598 2.80442,-3.2725 z m -10.35055,2.53805 c 0.2673,0.26699 -7.34533,8.8810504 -12.55417,14.1564004 -12.88829,13.1562 -25.64325,23.44053 -41.470226,33.45758 -2.003162,1.26841 -3.805855,2.40317 -4.006635,2.53744 -0.46776,0.26698 0.13303,-0.40125 7.078355,-7.94737 4.40788,-4.74138 7.746276,-8.74801 11.552746,-13.68894 2.53744,-3.27157 3.00521,-3.73934 6.67865,-6.34483 9.81657,-7.07866 32.45399,-22.4378804 32.72128,-22.1702804 z"
       fill="url(#c)"
       style="fill:url(#c);stroke-width:0.307942" />
  </g>
</svg>
