<?xml version="1.0" encoding="UTF-8" standalone="no"?>
<!-- Generator: Adobe Illustrator 23.0.6, SVG Export Plug-In . SVG Version: 6.00 Build 0)  -->

<svg
   version="1.1"
   id="image"
   x="0px"
   y="0px"
   viewBox="0 0 30 30"
   width="30"
   height="30"
   xml:space="preserve"
   sodipodi:docname="oracle.svg"
   inkscape:version="1.4.3 (0d15f750, 2025-12-25)"
   xmlns:inkscape="http://www.inkscape.org/namespaces/inkscape"
   xmlns:sodipodi="http://sodipodi.sourceforge.net/DTD/sodipodi-0.dtd"
   xmlns="http://www.w3.org/2000/svg"
   xmlns:svg="http://www.w3.org/2000/svg"
   xmlns:rdf="http://www.w3.org/1999/02/22-rdf-syntax-ns#"
   xmlns:cc="http://creativecommons.org/ns#"
   xmlns:dc="http://purl.org/dc/elements/1.1/"><defs
   id="defs2" /><sodipodi:namedview
   id="namedview2"
   pagecolor="#ffffff"
   bordercolor="#000000"
   borderopacity="0.25"
   inkscape:showpageshadow="2"
   inkscape:pageopacity="0.0"
   inkscape:pagecheckerboard="0"
   inkscape:deskcolor="#d1d1d1"
   inkscape:zoom="13.350622"
   inkscape:cx="17.751982"
   inkscape:cy="18.800622"
   inkscape:window-width="1224"
   inkscape:window-height="763"
   inkscape:window-x="76"
   inkscape:window-y="30"
   inkscape:window-maximized="0"
   inkscape:current-layer="image" />
<style
   type="text/css"
   id="style1">
	.st0{fill:#F80000;}
</style>
<title
   id="title1">Oracle</title>
<path
   class="st0"
   d="m 12.936803,15.55762 h 1.97026 l -1.040891,-1.710036 -1.933087,3.048327 h -0.855019 l 2.342008,-3.643123 c 0.111524,-0.148698 0.260222,-0.223048 0.446098,-0.223048 0.185873,0 0.334571,0.07435 0.446095,0.223048 l 2.342008,3.680297 h -0.892193 l -0.408923,-0.669144 h -2.007435 z m 9.070631,0.669146 V 13.02974 H 21.26394 v 3.494423 c 0,0.111525 0.03717,0.185874 0.111524,0.260224 0.07435,0.07435 0.148699,0.111524 0.260223,0.111524 h 3.3829 l 0.446097,-0.669145 z M 9.739777,15.669145 c 0.70632,0 1.301114,-0.594795 1.301114,-1.301115 0,-0.70632 -0.594794,-1.301115 -1.301114,-1.301115 H 6.5055763 v 3.86617 H 7.2490708 V 13.73606 h 2.4535315 c 0.3345717,0 0.6319707,0.297398 0.6319707,0.63197 0,0.334571 -0.260224,0.631971 -0.6319707,0.631971 H 7.6208179 l 2.2304832,1.933084 H 10.929367 L 9.4423793,15.669145 Z M 1.9330857,16.895911 C 0.8550187,16.895911 1.225e-7,16.040893 1.225e-7,14.962826 1.225e-7,13.884759 0.8550187,13.02974 1.9330857,13.02974 h 2.2304832 c 1.0780669,0 1.9330855,0.855019 1.9330855,1.933086 0,1.078067 -0.8550186,1.933085 -1.9330855,1.933085 z m 2.1933086,-0.669145 c 0.7063196,0 1.2639404,-0.557621 1.2639404,-1.26394 0,-0.70632 -0.5576208,-1.263941 -1.2639404,-1.263941 h -2.156134 c -0.7063196,0 -1.26394048,0.557621 -1.26394048,1.263941 0,0.706319 0.55762088,1.26394 1.26394048,1.26394 z m 14.0892177,0.669145 c -1.078067,0 -1.933084,-0.855018 -1.933084,-1.933085 0,-1.078067 0.855017,-1.933086 1.933084,-1.933086 h 2.67658 l -0.446096,0.669145 h -2.193309 c -0.706318,0 -1.26394,0.557621 -1.26394,1.263941 0,0.706319 0.557622,1.26394 1.26394,1.26394 h 2.676582 l -0.446098,0.669145 z m 9.070633,-0.669145 c -0.557621,0 -1.040893,-0.371747 -1.189591,-0.892193 h 3.159851 l 0.446096,-0.669146 h -3.605947 c 0.148698,-0.520445 0.63197,-0.892193 1.189591,-0.892193 h 2.193308 L 29.92565,13.10409 h -2.676579 c -1.078068,0 -1.933087,0.855019 -1.933087,1.933085 0,1.078067 0.855019,1.933085 1.933087,1.933085 h 2.304832 L 30,16.301115 h -2.713755"
   id="path1"
   style="stroke-width:0.371746" />
<path
   class="st0"
   d="m 89.7,46 c 0,-0.5 0.4,-0.9 0.9,-0.9 0.5,0 0.9,0.4 0.9,0.9 0,0.5 -0.4,0.9 -0.9,0.9 -0.5,0 -0.9,-0.4 -0.9,-0.9 z m 0.9,1.1 c 0.6,0 1.2,-0.5 1.2,-1.2 0,-0.7 -0.5,-1.2 -1.2,-1.2 -0.6,0 -1.2,0.5 -1.2,1.2 0,0.7 0.6,1.2 1.2,1.2 z m -0.1,-1.8 c 0.2,0 0.3,0 0.3,0 0.2,0.1 0.3,0.3 0.3,0.4 0,0 0,0.1 0,0.1 0,0 0,0.1 -0.2,0.2 0,0 0,0 -0.1,0 l 0.3,0.5 H 90.8 L 90.5,46 h -0.2 v 0.5 H 90 v -1.3 h 0.5 z m 0.1,0.6 c 0.1,0 0.2,0 0.2,-0.1 0,0 0,-0.1 0,-0.1 0,-0.1 0,-0.1 -0.1,-0.2 -0.1,0 -0.1,0 -0.2,0 h -0.1 v 0.4 h 0.2"
   id="path2" />
<metadata
   id="metadata2"><rdf:RDF><cc:Work
       rdf:about=""><dc:title>Oracle</dc:title></cc:Work></rdf:RDF></metadata></svg>
