<?xml version="1.0" encoding="UTF-8" standalone="no"?>
<svg
   xmlns:dc="http://purl.org/dc/elements/1.1/"
   xmlns:cc="http://creativecommons.org/ns#"
   xmlns:rdf="http://www.w3.org/1999/02/22-rdf-syntax-ns#"
   xmlns:svg="http://www.w3.org/2000/svg"
   xmlns="http://www.w3.org/2000/svg"
   xmlns:sodipodi="http://sodipodi.sourceforge.net/DTD/sodipodi-0.dtd"
   xmlns:inkscape="http://www.inkscape.org/namespaces/inkscape"
   inkscape:version="1.0 (4035a4f, 2020-05-01)"
   sodipodi:docname="Arch_Amazon-Redshift_32.svg"
   id="svg74"
   version="1.1"
   viewBox="0 0 30 30"
   height="30"
   width="30">
  <metadata
     id="metadata80">
    <rdf:RDF>
      <cc:Work
         rdf:about="">
        <dc:format>image/svg+xml</dc:format>
        <dc:type
           rdf:resource="http://purl.org/dc/dcmitype/StillImage" />
        <dc:title>Icon-Architecture/32/Arch_Amazon-Redshift_32</dc:title>
      </cc:Work>
    </rdf:RDF>
  </metadata>
  <defs
     id="defs78" />
  <sodipodi:namedview
     inkscape:current-layer="svg74"
     inkscape:window-maximized="0"
     inkscape:window-y="25"
     inkscape:window-x="60"
     inkscape:cy="24.872808"
     inkscape:cx="11.705241"
     inkscape:zoom="9.4975275"
     showgrid="false"
     id="namedview76"
     inkscape:window-height="778"
     inkscape:window-width="1226"
     inkscape:pageshadow="2"
     inkscape:pageopacity="0"
     guidetolerance="10"
     gridtolerance="10"
     objecttolerance="10"
     borderopacity="1"
     bordercolor="#666666"
     pagecolor="#ffffff" />
  <title
     id="title68">Icon-Architecture/32/Arch_Amazon-Redshift_32</title>
  <g
     transform="scale(0.75)"
     fill-rule="evenodd"
     fill="none"
     stroke-width="1"
     stroke="none"
     id="Icon-Architecture/32/Arch_Amazon-Redshift_32">
    <g
       fill="#8c4fff"
       id="Icon-Architecture-BG/32/Analytics">
      <rect
         height="40"
         width="40"
         y="0"
         x="0"
         id="Rectangle" />
    </g>
    <path
       fill="#ffffff"
       id="Amazon-Redshift_Icon_32_Squid"
       d="m 25.912,17.586826 c -0.528,0 -0.959,-0.429141 -0.959,-0.957086 0,-0.528942 0.431,-0.958083 0.959,-0.958083 0.529,0 0.96,0.429141 0.96,0.958083 0,0.527945 -0.431,0.957086 -0.96,0.957086 m -2.433,5.826348 c -0.528,0 -0.959,-0.429142 -0.959,-0.958084 0,-0.527944 0.431,-0.957086 0.959,-0.957086 0.53,0 0.96,0.429142 0.96,0.957086 0,0.528942 -0.43,0.958084 -0.96,0.958084 m -5.838,-0.971058 c -0.528,0 -0.958,-0.429142 -0.958,-0.958084 0,-0.527944 0.43,-0.957086 0.958,-0.957086 0.53,0 0.96,0.429142 0.96,0.957086 0,0.528942 -0.43,0.958084 -0.96,0.958084 m -2.431,5.340319 c -0.529,0 -0.96,-0.429142 -0.96,-0.957086 0,-0.527944 0.431,-0.958084 0.96,-0.958084 0.528,0 0.959,0.43014 0.959,0.958084 0,0.527944 -0.431,0.957086 -0.959,0.957086 M 25.912,14.673653 c -1.08,0 -1.959,0.877245 -1.959,1.956087 0,0.660679 0.332,1.243513 0.837,1.597805 L 23.877,20.53992 C 23.748,20.513972 23.615,20.5 23.479,20.5 c -0.859,0 -1.582,0.558882 -1.845,1.328343 l -2.045,-0.464072 c -0.064,-1.021956 -0.907,-1.835329 -1.948,-1.835329 -1.08,0 -1.958,0.877246 -1.958,1.95509 0,0.503992 0.197,0.96008 0.511,1.306387 l -0.892,2.088822 c -0.032,-0.002 -0.061,-0.01 -0.092,-0.01 -1.081,0 -1.96,0.877246 -1.96,1.956088 0,1.077845 0.879,1.95509 1.96,1.95509 1.08,0 1.959,-0.877245 1.959,-1.95509 0,-0.692614 -0.364,-1.297405 -0.908,-1.645708 l 0.787,-1.841318 c 0.188,0.05988 0.385,0.101797 0.593,0.101797 0.771,0 1.432,-0.4501 1.752,-1.096807 l 2.165,0.491018 c 0.178,0.897206 0.971,1.576847 1.921,1.576847 1.081,0 1.96,-0.877246 1.96,-1.956088 0,-0.582834 -0.261,-1.100799 -0.669,-1.459082 l 0.959,-2.43014 c 0.062,0.006 0.121,0.01896 0.183,0.01896 1.081,0 1.96,-0.877245 1.96,-1.95509 0,-1.078842 -0.879,-1.956087 -1.96,-1.956087 M 20.5,33.001996 c -4.865,0 -8.5,-1.46008 -8.5,-2.765469 V 11.58982 c 1.663,1.338324 5.153,2.048903 8.5,2.048903 3.347,0 6.837,-0.710579 8.5,-2.048903 v 18.646707 c 0,1.305389 -3.635,2.765469 -8.5,2.765469 m 0,-26.003992 c 5.009,0 8.5,1.4860279 8.5,2.8213573 0,1.3343317 -3.491,2.8213577 -8.5,2.8213577 -5.009,0 -8.5,-1.487026 -8.5,-2.8213577 C 12,8.4840319 15.491,6.998004 20.5,6.998004 M 30,9.8193613 C 30,7.3383233 25.105,6 20.5,6 15.894,6 11,7.3383233 11,9.8193613 c 0,0.00399 0.002,0.00798 0.002,0.011976 H 11 V 30.236527 C 11,32.680639 15.894,34 20.5,34 25.105,34 30,32.680639 30,30.236527 V 9.8313373 h -0.002 c 0,-0.00399 0.002,-0.00798 0.002,-0.011976" />
  </g>
</svg>
