<?xml version="1.0" encoding="UTF-8" standalone="no"?>
<svg
   xmlns:dc="http://purl.org/dc/elements/1.1/"
   xmlns:cc="http://creativecommons.org/ns#"
   xmlns:rdf="http://www.w3.org/1999/02/22-rdf-syntax-ns#"
   xmlns:svg="http://www.w3.org/2000/svg"
   xmlns="http://www.w3.org/2000/svg"
   xmlns:sodipodi="http://sodipodi.sourceforge.net/DTD/sodipodi-0.dtd"
   xmlns:inkscape="http://www.inkscape.org/namespaces/inkscape"
   width="30"
   height="30"
   viewBox="0 0 30 30"
   version="1.1"
   preserveAspectRatio="xMidYMid"
   id="svg30"
   sodipodi:docname="sqs.svg"
   inkscape:version="1.0 (4035a4f, 2020-05-01)">
  <metadata
     id="metadata36">
    <rdf:RDF>
      <cc:Work
         rdf:about="">
        <dc:format>image/svg+xml</dc:format>
        <dc:type
           rdf:resource="http://purl.org/dc/dcmitype/StillImage" />
        <dc:title />
      </cc:Work>
    </rdf:RDF>
  </metadata>
  <defs
     id="defs34">
    <clipPath
       clipPathUnits="userSpaceOnUse"
       id="cp1">
      <path
         d="M 0.24,0 H 6893.26 V 1558.22 H 0.24 Z"
         id="path26-6" />
    </clipPath>
  </defs>
  <sodipodi:namedview
     inkscape:document-rotation="0"
     pagecolor="#ffffff"
     bordercolor="#666666"
     borderopacity="1"
     objecttolerance="10"
     gridtolerance="10"
     guidetolerance="10"
     inkscape:pageopacity="0"
     inkscape:pageshadow="2"
     inkscape:window-width="1156"
     inkscape:window-height="713"
     id="namedview32"
     showgrid="false"
     inkscape:zoom="10.952061"
     inkscape:cx="15.227388"
     inkscape:cy="17.230695"
     inkscape:window-x="180"
     inkscape:window-y="87"
     inkscape:window-maximized="0"
     inkscape:current-layer="svg30" />
  <g
     transform="matrix(0.31387079,0,0,0.31387079,-208.41404,-219.4069)"
     id="HOMEPAGE">
    <g
       id="Snowflake-Homepage-platform-alt-3-Copy">
      <g
         id="Components-/-Navigation-/-Main">
        <g
           id="Logo-/-Snowflake-Blue">
          <g
             transform="matrix(0.06071963,0,0,0.06071963,664.29971,699.51882)"
             style="fill:#29b5e8;fill-opacity:1"
             id="Layer">
            <g
               style="fill:#29b5e8;fill-opacity:1"
               id="Mask" />
            <g
               style="fill:#29b5e8;fill-opacity:1"
               id="Clip-Path: Clip-Path: Fill-1"
               clip-path="url(#cp1)">
              <g
                 style="fill:#29b5e8;fill-opacity:1"
                 id="Clip-Path: Fill-1">
                <path
                   style="fill:#29b5e8;fill-opacity:1"
                   id="Fill-1"
                   fill-rule="evenodd"
                   class="shp0"
                   d="m 522.63,807.57 c -7,22.5 -22.19,42.49 -44.56,55.27 L 146.72,1052.69 C 99.92,1079.39 40.3,1063.56 13.44,1017.38 -13.59,970.94 2.32,911.86 49.08,885.08 L 234.26,779.17 49.08,672.98 C 2.32,646.24 -13.67,587.15 13.44,540.88 40.3,494.58 99.92,478.7 146.72,505.4 l 331.35,189.73 c 23.3,13.33 38.87,34.47 45.41,58.11 2.2,7.6 3.18,15.2 3.56,22.84 0.26,10.52 -1.1,21.18 -4.41,31.49 z m 89.91,177.81 c 50.46,3.6 90.3,45.46 90.3,96.39 v 379.59 c 0,53.53 -43.79,96.86 -97.55,96.86 -54.02,0 -97.64,-43.33 -97.64,-96.86 v -212.31 l -185.81,106.24 c -46.59,26.91 -106.17,10.99 -133.24,-35.23 -26.9,-46.31 -10.99,-105.69 35.69,-132.43 L 555.9,998.02 c 17.82,-10.31 37.59,-14.26 56.64,-12.64 z M 952.17,572.85 c -50.58,-3.7 -90.34,-45.63 -90.34,-96.52 V 96.69 C 861.83,43.34 905.37,0 959.43,0 c 54.01,0 97.64,43.34 97.64,96.69 v 212.44 l 185.68,-106.41 c 46.68,-26.74 106.29,-10.87 133.2,35.36 26.85,46.48 11.03,105.6 -35.69,132.34 L 1008.69,560.2 c -17.82,10.18 -37.55,14.17 -56.52,12.65 z M 224.29,370.42 C 177.61,343.68 161.7,284.56 188.6,238.08 c 27.07,-46.23 86.65,-62.1 133.24,-35.36 L 507.65,309.13 V 96.69 C 507.65,43.34 551.27,0 605.29,0 c 53.76,0 97.55,43.34 97.55,96.69 v 379.64 c 0,50.89 -39.84,92.82 -90.3,96.52 -19.05,1.52 -38.82,-2.47 -56.64,-12.65 z m 595.54,582.32 c -3.95,4.03 -11.55,7.3 -17.32,7.3 h -40.52 c -5.56,0 -13.28,-3.27 -17.31,-7.3 L 606.94,816.27 c -3.94,-3.86 -7.13,-11.59 -7.13,-17.02 v -40.28 c 0,-5.56 3.19,-13.28 7.13,-17.19 L 744.68,605.27 c 4.03,-3.98 11.75,-7.17 17.31,-7.17 h 40.52 c 5.65,0 13.37,3.19 17.32,7.17 l 137.82,136.51 c 3.94,3.91 7.12,11.63 7.12,17.19 v 40.28 c 0,5.43 -3.18,13.16 -7.12,17.02 z m 27.66,-174.37 c 0,-5.52 -3.35,-13.2 -7.3,-17.28 L 800.26,721.7 c -3.9,-3.9 -11.66,-7.13 -17.22,-7.13 h -1.57 c -5.56,0 -13.28,3.23 -17.15,7.13 l -39.92,39.39 c -3.99,4.08 -7.05,11.76 -7.05,17.28 v 1.57 c 0,5.43 3.06,13.03 7.05,17.02 l 39.92,39.47 c 3.91,3.91 11.59,7.13 17.15,7.13 h 1.57 c 5.56,0 13.32,-3.22 17.22,-7.13 l 39.93,-39.47 c 3.95,-3.99 7.3,-11.59 7.3,-17.02 z m 492.77,409.26 c 46.72,26.74 62.54,86.12 35.69,132.43 -26.91,46.22 -86.57,62.14 -133.2,35.23 l -185.68,-106.24 v 212.31 c 0,53.53 -43.63,96.86 -97.64,96.86 -54.06,0 -97.6,-43.33 -97.6,-96.86 v -379.59 c 0,-50.93 39.76,-92.79 90.34,-96.39 18.97,-1.62 38.7,2.33 56.52,12.64 z m -9.89,-408.46 185.18,105.91 c 46.76,26.78 62.76,85.86 35.73,132.3 -26.99,46.18 -86.69,62.01 -133.28,35.31 L 1086.39,862.84 c -22.15,-12.78 -37.47,-32.77 -44.3,-55.27 -3.23,-10.31 -4.76,-20.97 -4.37,-31.49 0.17,-7.64 1.31,-15.24 3.43,-22.84 6.62,-23.64 22.2,-44.78 45.24,-58.11 L 1418,505.4 c 46.59,-26.7 106.29,-10.82 133.28,35.48 27.03,46.27 11.03,105.36 -35.73,132.1 z" />
              </g>
            </g>
          </g>
        </g>
      </g>
    </g>
  </g>
</svg>
