<svg width="80" height="89" viewBox="0 0 80 89" fill="none" xmlns="http://www.w3.org/2000/svg">
<path d="M67.4861 43.9053C67.4861 42.3664 67.3948 40.918 67.2121 39.4695C66.6642 32.4085 64.9291 26.0716 61.8242 20.64C58.7193 15.1179 54.6098 10.7726 49.4959 7.42315C48.4 6.69894 47.3955 5.97473 46.2083 5.43157C43.7427 4.1642 41.1857 3.16841 38.4461 2.35367L0 44.2674L38.5374 86.2718C41.1857 85.457 43.834 84.4612 46.2997 83.1938C47.1215 82.7412 47.9434 82.1981 48.7653 81.6549C54.2446 78.2149 58.7193 73.6886 61.9155 67.8949C65.2031 62.1012 66.9382 55.3117 67.3034 47.6169C67.3948 46.8022 67.3948 45.9875 67.3948 45.1727C67.3948 44.8106 67.4861 44.539 67.4861 44.1769C67.4861 44.0864 67.4861 44.0864 67.4861 43.9959C67.3948 44.0864 67.4861 43.9959 67.4861 43.9053Z" fill="#AAD046"/>
<path d="M38.4461 2.26316C34.2453 0.995792 29.6793 0.271579 24.8393 0.090526C22.8302 0.090526 20.7298 0 18.5381 0H4.3834C1.91774 0 0 1.99158 0 4.34527V31.3222V44.2675L38.4461 2.26316Z" fill="#06A04A"/>
<path d="M0 57.2127V84.1896C0 86.6338 2.00906 88.5349 4.3834 88.5349H18.5381C20.7298 88.5349 22.8302 88.5349 24.8393 88.4443C29.6793 88.3538 34.2453 87.5391 38.4461 86.2717L0 44.2674V57.2127Z" fill="#06A04A"/>
<path d="M75.6136 0.0905151H52.6007C52.8747 0.271568 53.0573 0.452622 53.3313 0.724201C59.1758 4.70737 64.0158 9.77685 67.5774 16.2042C71.2302 22.7221 73.3306 30.2358 73.9698 38.6548C74.1525 40.3748 74.2438 42.1853 74.2438 43.9959C74.2438 44.0864 74.2438 44.1769 74.2438 44.2675C74.2438 44.358 74.2438 44.358 74.2438 44.4485C74.2438 44.8106 74.1525 45.1727 74.1525 45.6254C74.1525 46.6211 74.0611 47.5264 73.9698 48.5222C73.5132 57.6654 71.4128 65.7222 67.486 72.6928C63.7419 79.3917 58.6279 84.6423 52.4181 88.6254V88.716H75.6136C78.0793 88.716 79.997 86.7244 79.997 84.3707V4.70737C80.0883 2.0821 78.0793 0.0905151 75.6136 0.0905151Z" fill="#AAD046"/>
</svg>
