<?xml version="1.0" encoding="utf-8"?>
<!-- Generator: Adobe Illustrator 24.1.2, SVG Export Plug-In . SVG Version: 6.00 Build 0)  -->
<svg version="1.1" id="Layer_1" xmlns="http://www.w3.org/2000/svg" xmlns:xlink="http://www.w3.org/1999/xlink" x="0px" y="0px"
	 viewBox="0 0 602.2 117.7" style="enable-background:new 0 0 602.2 117.7;" xml:space="preserve">
<style type="text/css">
	.st0{fill:#AAD046;}
	.st1{fill:#06A04A;}
</style>
<path d="M37.3,107.6c0.6,0,1.1,0,1.6-0.1c-2.2,0-4.5,0.1-6.9,0.1H37.3z"/>
<path d="M37.3,9.9H32c2.4,0,4.7,0,6.9,0.1C38.3,9.9,37.8,9.9,37.3,9.9z"/>
<path class="st0" d="M85.6,58.3c0-1.7-0.1-3.3-0.3-4.9c-0.6-7.8-2.5-14.8-5.9-20.8C76,26.5,71.5,21.7,65.9,18
	c-1.2-0.8-2.3-1.6-3.6-2.2c-2.7-1.4-5.5-2.5-8.5-3.4L11.7,58.7l42.2,46.4c2.9-0.9,5.8-2,8.5-3.4c0.9-0.5,1.8-1.1,2.7-1.7
	c6-3.8,10.9-8.8,14.4-15.2c3.6-6.4,5.5-13.9,5.9-22.4c0.1-0.9,0.1-1.8,0.1-2.7c0-0.4,0.1-0.7,0.1-1.1c0-0.1,0-0.1,0-0.2
	C85.5,58.5,85.6,58.4,85.6,58.3z"/>
<path class="st1" d="M53.8,12.3c-4.6-1.4-9.6-2.2-14.9-2.4c-2.2,0-4.5-0.1-6.9-0.1H16.5c-2.7,0-4.8,2.2-4.8,4.8v29.8v14.3L53.8,12.3
	C53.8,12.3,53.8,12.3,53.8,12.3z"/>
<path class="st1" d="M11.7,73v29.8c0,2.7,2.2,4.8,4.8,4.8H32c2.4,0,4.7,0,6.9-0.1c5.3-0.1,10.3-1,14.9-2.4c0,0,0,0,0,0L11.7,58.7V73
	z"/>
<path class="st0" d="M94.5,9.9H69.3c0.3,0.2,0.5,0.4,0.8,0.7c6.4,4.4,11.7,10,15.6,17.1c4,7.2,6.3,15.5,7,24.8
	c0.2,1.9,0.3,3.9,0.3,5.9c0,0.1,0,0.2,0,0.3c0,0.1,0,0.1,0,0.2c0,0.4-0.1,0.8-0.1,1.3c0,1.1-0.1,2.1-0.2,3.2
	c-0.5,10.1-2.8,19-7.1,26.7c-4.1,7.4-9.7,13.2-16.5,17.6c0,0,0,0.1,0,0.1h25.4c2.7,0,4.8-2.2,4.8-4.8v-88
	C99.4,12.1,97.2,9.9,94.5,9.9z"/>
<path class="st1" d="M132,28h24.1c17.6,0,27.8,13.4,27.8,30.9c0,17.4-10.3,30.6-27.8,30.6H132V28z M156.1,79.7
	c11.2,0,16.9-9.5,16.9-20.9c0-11.5-5.7-21.1-16.9-21.1h-13.2v42H156.1z"/>
<path class="st1" d="M231.9,47.8v41.7h-10.4v-5.6c-2.9,4.5-8.7,6.5-13.8,6.5c-11,0-20.5-8.5-20.5-21.8c0-13.4,9.5-21.7,20.4-21.7
	c5.3,0,11.1,2.1,13.9,6.4v-5.5H231.9z M221.4,68.5c0-7.3-6.1-12-12-12c-6.4,0-11.7,5-11.7,12c0,7,5.3,12.1,11.7,12.1
	C215.7,80.6,221.4,75.8,221.4,68.5z"/>
<path class="st1" d="M263,56.1h-8.8v33.4h-10.4V56.1h-7.5v-8.3h7.5V32.5h10.4v15.4h8.8V56.1z"/>
<path class="st1" d="M309,47.8v41.7h-10.4v-5.6c-2.9,4.5-8.7,6.5-13.8,6.5c-11,0-20.5-8.5-20.5-21.8c0-13.4,9.5-21.7,20.4-21.7
	c5.3,0,11.1,2.1,13.9,6.4v-5.5H309z M298.4,68.5c0-7.3-6.1-12-12-12c-6.4,0-11.7,5-11.7,12c0,7,5.3,12.1,11.7,12.1
	C292.7,80.6,298.4,75.8,298.4,68.5z"/>
<path class="st1" d="M354.6,89.5l-21.2-23.4v23.4h-10.8V28h10.8v23.3L350.7,28h13.5l-23.5,30.6l28.6,30.9H354.6z"/>
<path class="st1" d="M373.7,33.1c0-3.7,3.1-6.3,6.8-6.3c3.7,0,6.7,2.7,6.7,6.3c0,3.6-2.9,6.3-6.7,6.3
	C376.9,39.4,373.7,36.6,373.7,33.1z M375.3,47.8h10.4v41.7h-10.4V47.8z"/>
<path class="st1" d="M417.4,56.1h-8.8v33.4h-10.4V56.1h-7.5v-8.3h7.5V32.5h10.4v15.4h8.8V56.1z"/>
<path class="st1" d="M417.6,68.6c0-13.2,10.6-21.7,22.7-21.7c7.2,0,13.1,3.1,17,8l-7.4,5.8c-2.1-2.6-5.7-4.2-9.4-4.2
	c-7.2,0-12.4,5-12.4,12c0,7,5.2,12,12.4,12c3.7,0,7.2-1.6,9.4-4.2l7.4,5.8c-3.8,4.8-9.7,8-17,8C428.3,90.3,417.6,81.8,417.6,68.6z"
	/>
<path class="st1" d="M500.7,66.1v23.4h-10.4V67.1c0-6.6-4-10-8.7-10c-4.7,0-10.6,2.6-10.6,10.6v21.8h-10.4v-64h10.4v28.6
	c2.1-5,8.7-7.2,12.9-7.2C494.8,46.9,500.7,54,500.7,66.1z"/>
<path class="st1" d="M547.5,72.3h-32.2c1.2,5.8,5.6,8.7,11.8,8.7c4.6,0,8.8-1.8,11.3-5.2l6.9,5.3c-3.8,6.1-11.2,9.3-18.7,9.3
	c-12.5,0-22-8.7-22-21.8c0-13.3,10-21.7,21.9-21.7c12,0,21.3,8.3,21.3,21.3C547.8,69.4,547.7,70.7,547.5,72.3z M537.4,65
	c-0.6-5.7-5-9-10.8-9c-5.6,0-10.1,2.7-11.3,9H537.4z"/>
<path class="st1" d="M591.9,66.1v23.4h-10.4V67.1c0-6.6-4-10-8.7-10c-4.7,0-10.6,2.6-10.6,10.6v21.8h-10.4V47.8h10.4v6.6
	c2.1-5.2,8.7-7.5,12.9-7.5C585.9,46.9,591.9,54,591.9,66.1z"/>
</svg>
